<svg xmlns="http://www.w3.org/2000/svg" width="64" height="83.047" style="fill:none"><path d="M0 31.788c0 23.444 32 51.259 32 51.259s32-27.815 32-51.259C64 14.232 49.673 0 32 0 14.327 0 0 14.232 0 31.788z" style="fill:#0077d4"/><path d="M32 50.365c8.678 0 15.715-7.036 15.715-15.714C39.037 34.651 32 41.687 32 50.365zM20.826 29.849a4.366 4.366 0 0 0 4.365 4.365c.925 0 1.763-.279 2.48-.768l-.036.332A4.367 4.367 0 0 0 32 38.143a4.367 4.367 0 0 0 4.365-4.365l-.034-.332a4.302 4.302 0 0 0 2.479.768 4.366 4.366 0 0 0 4.365-4.365c0-1.746-1.03-3.23-2.497-3.928 1.467-.699 2.497-2.183 2.497-3.929a4.367 4.367 0 0 0-6.844-3.597l.034-.332A4.367 4.367 0 0 0 32 13.698a4.367 4.367 0 0 0-4.365 4.365l.035.332a4.302 4.302 0 0 0-2.48-.768 4.367 4.367 0 0 0-4.364 4.365c0 1.746 1.03 3.23 2.497 3.929a4.349 4.349 0 0 0-2.497 3.928zM32 21.556a4.366 4.366 0 0 1 4.365 4.365A4.367 4.367 0 0 1 32 30.286a4.367 4.367 0 0 1-4.365-4.365A4.366 4.366 0 0 1 32 21.556zM16.286 34.651c0 8.678 7.037 15.714 15.714 15.714 0-8.678-7.036-15.714-15.714-15.714z" style="fill:#fff"/></svg>