<svg xmlns="http://www.w3.org/2000/svg" width="32" height="42" viewBox="0 0 64 84" style="fill:none"><path d="M0 31.788c0 23.444 32 51.259 32 51.259s32-27.815 32-51.259C64 14.232 49.673 0 32 0 14.327 0 0 14.232 0 31.788z" style="fill:#0077d4"/><path d="M38.667 30.096V19.429H25.333v5.333H20v18.667h10.667v-5.333h2.666v5.333H44V30.096zM25.333 40.762h-2.666v-2.666h2.666zm0-5.333h-2.666v-2.667h2.666zm0-5.333h-2.666v-2.667h2.666zm5.334 5.333H28v-2.667h2.667zm0-5.333H28v-2.667h2.667zm0-5.334H28v-2.666h2.667zM36 35.429h-2.667v-2.667H36zm0-5.333h-2.667v-2.667H36zm0-5.334h-2.667v-2.666H36zm5.333 16h-2.666v-2.666h2.666zm0-5.333h-2.666v-2.667h2.666z" style="fill:#fff"/></svg>
