<svg xmlns="http://www.w3.org/2000/svg" width="32" height="42" viewBox="0 0 64 84" style="fill:none"><path d="M0 31.788c0 23.444 32 51.259 32 51.259s32-27.815 32-51.259C64 14.232 49.673 0 32 0 14.327 0 0 14.232 0 31.788z" style="fill:#0077d4"/><path d="M45.5 19.358c-1.665-.525-3.495-.75-5.25-.75-2.925 0-6.075.6-8.25 2.25-2.175-1.65-5.325-2.25-8.25-2.25s-6.075.6-8.25 2.25v23.25c2.175-1.65 5.325-2.25 8.25-2.25s6.075.6 8.25 2.25c2.175-1.65 5.325-2.25 8.25-2.25 1.755 0 3.585.225 5.25.75 1.125.375 2.1.825 3 1.5v-23.25c-.9-.675-1.875-1.125-3-1.5zm0 20.25c-1.65-.525-3.45-.75-5.25-.75-2.55 0-6.225.975-8.25 2.25v-17.25c2.025-1.275 5.7-2.25 8.25-2.25 1.8 0 3.6.225 5.25.75z" style="fill:#fff"/><path d="M40.25 27.608c1.32 0 2.595.135 3.75.39v-2.28a20.255 20.255 0 0 0-3.75-.36c-2.55 0-4.86.435-6.75 1.245v2.49c1.695-.96 4.05-1.485 6.75-1.485zM33.5 30.593v2.49c1.695-.96 4.05-1.485 6.75-1.485 1.32 0 2.595.135 3.75.39v-2.28a20.255 20.255 0 0 0-3.75-.36c-2.55 0-4.86.45-6.75 1.245zM40.25 33.353c-2.55 0-4.86.435-6.75 1.245v2.49c1.695-.96 4.05-1.485 6.75-1.485 1.32 0 2.595.135 3.75.39v-2.28c-1.185-.24-2.46-.36-3.75-.36z" style="fill:#fff"/></svg>
