<svg width="32" height="42" viewBox="0 0 64 84" fill="none" xmlns="http://www.w3.org/2000/svg"><path d="M0 31.789c0 23.444 32 51.259 32 51.259s32-27.815 32-51.26C64 14.233 49.673 0 32 0 14.327 0 0 14.232 0 31.789Z" fill="#0077d4"/><g clip-path="url(#a)" fill="#fff"><path d="M48.422 39.103h-31.94v1.342h31.94v-1.342ZM50.163 41.38H14.672v1.342h35.49V41.38ZM51.903 43.658H13V45h38.903v-1.342ZM48.422 22.224h-31.94v1.342h31.94v-1.342ZM22.946 21.365l9.494-2.853 9.318 2.853h3.887L32.44 17.278l-13.382 4.087h3.888Z"/><path d="m32.44 15-15.959 4.923v1.442l15.959-4.862 15.982 4.862v-1.442L32.44 15ZM18.36 37.37s0 1.005 1.135 1.005c1.143 0 1.074-1.005 1.074-1.005V24.38h-.836V37.4s0 .238-.299.238c-.3 0-.238-.299-.238-.299V24.38h-.836v12.99ZM23.613 38.374h.668v-8.412l.835 8.412h.706V24.38h-.706v7.485l-.835-7.485h-.668v13.995ZM28.936 38.374h2.147v-.736H29.87v-6.327h.905v-.767h-.905v-5.46h.905v-.705h-1.84v13.995ZM41.26 28.535v-3.144s-.032-1.004-1.105-1.004c-1.074 0-1.074 1.004-1.074 1.004v11.986s-.03 1.005 1.074 1.005 1.104-1.005 1.104-1.005v-3.512h-.836v3.512s0 .269-.268.269c-.253 0-.3-.269-.3-.269V25.383s0-.299.3-.299c.268 0 .268.3.268.3v3.144h.836v.007ZM46.581 25.384s.07-1.005-1.104-1.005c-1.173 0-1.173 1.005-1.173 1.005V37.37s0 1.004 1.104 1.004c1.173 0 1.173-1.004 1.173-1.004V25.384Zm-.805 11.986s.03.268-.299.268c-.33 0-.33-.268-.33-.268V25.384s0-.3.3-.3c.337 0 .337.3.337.3V37.37h-.008ZM35.132 37.37s0 .268-.215.253c-.214-.016-.214-.253-.214-.253v-3.513h-.867v3.513s-.03 1.004 1.074 1.004 1.104-1.004 1.104-1.004v-3.03c0-1.64-1.304-4.77-1.304-5.805v-3.152s-.03-.299.2-.299c.237 0 .237.3.237.3v3.144h.867v-3.145s.03-1.035-1.074-1.004c-1.104.03-1.104 1.004-1.104 1.004v2.677c0 1.756 1.304 4.716 1.304 6.073v3.237h-.008Z"/></g><defs><clipPath id="a"><path fill="#fff" transform="translate(13 15)" d="M0 0h38.903v30H0z"/></clipPath></defs></svg>
