<svg id="logo-45" width="160" height="32" viewBox="0 0 160 32" fill="none" xmlns="http://www.w3.org/2000/svg"> <path d="M48.0728 24.2381V7.95009H51.1442V21.4458H58.5901V24.2381H48.0728Z" fill="#3A5088"></path> <path d="M65.2215 24.5638C64.0736 24.5638 63.042 24.3311 62.1268 23.8658C61.2115 23.4004 60.4902 22.7256 59.9628 21.8414C59.4354 20.9572 59.1717 19.8946 59.1717 18.6536V18.2813C59.1717 17.0403 59.4354 15.9777 59.9628 15.0935C60.4902 14.2093 61.2115 13.5345 62.1268 13.0692C63.042 12.6038 64.0736 12.3711 65.2215 12.3711C66.3694 12.3711 67.401 12.6038 68.3162 13.0692C69.2314 13.5345 69.9527 14.2093 70.4802 15.0935C71.0076 15.9777 71.2713 17.0403 71.2713 18.2813V18.6536C71.2713 19.8946 71.0076 20.9572 70.4802 21.8414C69.9527 22.7256 69.2314 23.4004 68.3162 23.8658C67.401 24.3311 66.3694 24.5638 65.2215 24.5638ZM65.2215 21.9577C66.1212 21.9577 66.8658 21.6708 67.4553 21.0968C68.0447 20.5073 68.3395 19.6697 68.3395 18.5838V18.3511C68.3395 17.2653 68.0447 16.4353 67.4553 15.8614C66.8813 15.2719 66.1367 14.9772 65.2215 14.9772C64.3218 14.9772 63.5772 15.2719 62.9877 15.8614C62.3982 16.4353 62.1035 17.2653 62.1035 18.3511V18.5838C62.1035 19.6697 62.3982 20.5073 62.9877 21.0968C63.5772 21.6708 64.3218 21.9577 65.2215 21.9577Z" fill="#3A5088"></path> <path d="M72.372 18.514V18.1417C72.372 16.9317 72.6124 15.9002 73.0933 15.047C73.5742 14.1783 74.2102 13.519 75.0013 13.0692C75.808 12.6038 76.6844 12.3711 77.6307 12.3711C78.6855 12.3711 79.4844 12.5573 80.0273 12.9296C80.5703 13.3018 80.9658 13.6897 81.214 14.093H81.6329V12.6969H84.5182V26.2857C84.5182 27.0768 84.2855 27.7051 83.8201 28.1704C83.3547 28.6513 82.7343 28.8918 81.9586 28.8918H74.2335V26.3322H80.9348C81.3692 26.3322 81.5863 26.0995 81.5863 25.6342V22.6325H81.1675C81.0124 22.8807 80.7952 23.1367 80.516 23.4004C80.2368 23.6486 79.8645 23.858 79.3991 24.0286C78.9337 24.1993 78.3443 24.2846 77.6307 24.2846C76.6844 24.2846 75.808 24.0597 75.0013 23.6098C74.2102 23.1444 73.5742 22.4852 73.0933 21.632C72.6124 20.7633 72.372 19.724 72.372 18.514ZM78.4684 21.7251C79.3681 21.7251 80.1204 21.4381 80.7254 20.8641C81.3304 20.2902 81.6329 19.4835 81.6329 18.4442V18.2115C81.6329 17.1567 81.3304 16.35 80.7254 15.7916C80.1359 15.2176 79.3836 14.9306 78.4684 14.9306C77.5686 14.9306 76.8163 15.2176 76.2113 15.7916C75.6063 16.35 75.3038 17.1567 75.3038 18.2115V18.4442C75.3038 19.4835 75.6063 20.2902 76.2113 20.8641C76.8163 21.4381 77.5686 21.7251 78.4684 21.7251Z" fill="#3A5088"></path> <path d="M92.213 24.5638C91.0651 24.5638 90.0335 24.3311 89.1182 23.8658C88.203 23.4004 87.4817 22.7256 86.9543 21.8414C86.4269 20.9572 86.1631 19.8946 86.1631 18.6536V18.2813C86.1631 17.0403 86.4269 15.9777 86.9543 15.0935C87.4817 14.2093 88.203 13.5345 89.1182 13.0692C90.0335 12.6038 91.0651 12.3711 92.213 12.3711C93.3609 12.3711 94.3924 12.6038 95.3077 13.0692C96.2229 13.5345 96.9442 14.2093 97.4717 15.0935C97.9991 15.9777 98.2628 17.0403 98.2628 18.2813V18.6536C98.2628 19.8946 97.9991 20.9572 97.4717 21.8414C96.9442 22.7256 96.2229 23.4004 95.3077 23.8658C94.3924 24.3311 93.3609 24.5638 92.213 24.5638ZM92.213 21.9577C93.1127 21.9577 93.8573 21.6708 94.4467 21.0968C95.0362 20.5073 95.3309 19.6697 95.3309 18.5838V18.3511C95.3309 17.2653 95.0362 16.4353 94.4467 15.8614C93.8728 15.2719 93.1282 14.9772 92.213 14.9772C91.3132 14.9772 90.5687 15.2719 89.9792 15.8614C89.3897 16.4353 89.095 17.2653 89.095 18.3511V18.5838C89.095 19.6697 89.3897 20.5073 89.9792 21.0968C90.5687 21.6708 91.3132 21.9577 92.213 21.9577Z" fill="#3A5088"></path> <path d="M99.9219 24.2381V12.6969H102.854V24.2381H99.9219ZM101.388 11.3473C100.86 11.3473 100.411 11.1767 100.038 10.8354C99.6815 10.4941 99.5031 10.0443 99.5031 9.48581C99.5031 8.92737 99.6815 8.47751 100.038 8.13624C100.411 7.79496 100.86 7.62433 101.388 7.62433C101.931 7.62433 102.381 7.79496 102.737 8.13624C103.094 8.47751 103.273 8.92737 103.273 9.48581C103.273 10.0443 103.094 10.4941 102.737 10.8354C102.381 11.1767 101.931 11.3473 101.388 11.3473Z" fill="#3A5088"></path> <path d="M105.056 28.8918V12.6969H107.941V14.093H108.36C108.623 13.6431 109.034 13.2476 109.593 12.9063C110.151 12.5495 110.95 12.3711 111.99 12.3711C112.92 12.3711 113.781 12.6038 114.572 13.0692C115.364 13.519 116 14.1861 116.48 15.0703C116.961 15.9545 117.202 17.0248 117.202 18.2813V18.6536C117.202 19.9101 116.961 20.9805 116.48 21.8647C116 22.7489 115.364 23.4237 114.572 23.889C113.781 24.3389 112.92 24.5638 111.99 24.5638C111.292 24.5638 110.702 24.4785 110.221 24.3079C109.756 24.1527 109.376 23.9511 109.081 23.7029C108.802 23.4392 108.577 23.1755 108.406 22.9118H107.987V28.8918H105.056ZM111.105 22.0043C112.021 22.0043 112.773 21.7173 113.362 21.1433C113.967 20.5539 114.27 19.7007 114.27 18.5838V18.3511C114.27 17.2342 113.967 16.3888 113.362 15.8148C112.757 15.2254 112.005 14.9306 111.105 14.9306C110.206 14.9306 109.453 15.2254 108.848 15.8148C108.243 16.3888 107.941 17.2342 107.941 18.3511V18.5838C107.941 19.7007 108.243 20.5539 108.848 21.1433C109.453 21.7173 110.206 22.0043 111.105 22.0043Z" fill="#3A5088"></path> <path d="M123.64 24.5638C122.135 24.5638 120.902 24.2381 119.94 23.5865C118.979 22.935 118.397 22.0043 118.195 20.7943L120.894 20.0963C121.003 20.6392 121.181 21.0658 121.43 21.376C121.693 21.6863 122.011 21.9112 122.384 22.0508C122.771 22.1749 123.19 22.237 123.64 22.237C124.323 22.237 124.827 22.1206 125.152 21.8879C125.478 21.6397 125.641 21.3372 125.641 20.9805C125.641 20.6237 125.486 20.3522 125.176 20.1661C124.865 19.9644 124.369 19.8015 123.687 19.6774L123.035 19.5611C122.228 19.406 121.492 19.1965 120.825 18.9328C120.157 18.6536 119.622 18.2736 119.219 17.7927C118.816 17.3118 118.614 16.6913 118.614 15.9312C118.614 14.7833 119.033 13.9068 119.871 13.3018C120.708 12.6814 121.81 12.3711 123.175 12.3711C124.462 12.3711 125.533 12.6581 126.386 13.232C127.239 13.806 127.797 14.5584 128.061 15.4891L125.339 16.3268C125.215 15.7373 124.959 15.3185 124.571 15.0703C124.198 14.8221 123.733 14.698 123.175 14.698C122.616 14.698 122.19 14.7988 121.895 15.0005C121.6 15.1866 121.453 15.4503 121.453 15.7916C121.453 16.1639 121.608 16.4431 121.918 16.6292C122.228 16.7999 122.647 16.9317 123.175 17.0248L123.826 17.1412C124.695 17.2963 125.478 17.5057 126.176 17.7694C126.89 18.0176 127.448 18.3821 127.852 18.863C128.27 19.3284 128.48 19.9644 128.48 20.771C128.48 21.981 128.038 22.9195 127.154 23.5865C126.285 24.2381 125.114 24.5638 123.64 24.5638Z" fill="#3A5088"></path> <path d="M134.4 24.4242C133.5 24.4242 132.709 24.2225 132.026 23.8192C131.359 23.4004 130.84 22.8264 130.467 22.0974C130.095 21.3683 129.909 20.5306 129.909 19.5844V12.6969H132.841V19.3517C132.841 20.2204 133.05 20.8719 133.469 21.3062C133.903 21.7406 134.516 21.9577 135.307 21.9577C136.207 21.9577 136.905 21.663 137.401 21.0735C137.898 20.4686 138.146 19.6309 138.146 18.5605V12.6969H141.078V24.2381H138.192V22.7256H137.774C137.587 23.1134 137.238 23.4935 136.727 23.8658C136.215 24.2381 135.439 24.4242 134.4 24.4242Z" fill="#3A5088"></path> <path d="M143.293 24.2381V12.6969H146.178V13.9534H146.597C146.799 13.5656 147.133 13.232 147.598 12.9528C148.063 12.6581 148.676 12.5107 149.436 12.5107C150.258 12.5107 150.918 12.6736 151.414 12.9994C151.91 13.3096 152.29 13.7207 152.554 14.2326H152.973C153.237 13.7362 153.609 13.3251 154.09 12.9994C154.571 12.6736 155.253 12.5107 156.137 12.5107C156.851 12.5107 157.495 12.6658 158.069 12.9761C158.658 13.2708 159.124 13.7284 159.465 14.3489C159.822 14.9539 160 15.7218 160 16.6525V24.2381H157.068V16.8619C157.068 16.2259 156.905 15.7528 156.58 15.4426C156.254 15.1168 155.796 14.9539 155.207 14.9539C154.54 14.9539 154.02 15.1711 153.648 15.6054C153.291 16.0243 153.113 16.6292 153.113 17.4204V24.2381H150.181V16.8619C150.181 16.2259 150.018 15.7528 149.692 15.4426C149.366 15.1168 148.909 14.9539 148.319 14.9539C147.652 14.9539 147.132 15.1711 146.76 15.6054C146.403 16.0243 146.225 16.6292 146.225 17.4204V24.2381H143.293Z" fill="#3A5088"></path> <path d="M38.7809 15.5126C38.7809 11.3984 37.1465 7.45269 34.2374 4.5435C31.3282 1.63431 27.3825 -6.04956e-05 23.2682 -6.10352e-05C19.154 -6.15747e-05 15.2083 1.6343 12.2991 4.5435C9.38992 7.45269 7.75556 11.3984 7.75555 15.5126L12.6033 15.5126C14.2097 15.5126 15.4625 14.1664 16.0509 12.6717C16.4372 11.6902 17.0234 10.7883 17.7837 10.0281C19.2383 8.57346 21.2111 7.75628 23.2682 7.75628C25.3253 7.75628 27.2982 8.57346 28.7528 10.0281C30.2074 11.4827 31.0246 13.4555 31.0246 15.5126H38.7809Z" fill="url(#paint0_linear_1420_512)"></path> <path d="M29.8445 21.4491C30.6241 19.5669 31.0254 17.5497 31.0254 15.5126H38.7809C38.7809 24.08 31.8356 31.0253 23.2682 31.0253C21.9265 31.0253 20.6245 30.8549 19.3829 30.5347C20.0854 30.3537 20.7759 30.1233 21.4491 29.8444C23.3312 29.0649 25.0413 27.9222 26.4818 26.4817C27.9223 25.0412 29.065 23.3311 29.8445 21.4491Z" fill="#FBCF8E"></path> <path d="M0 15.5126C-2.91433e-07 17.5497 0.401247 19.5669 1.18083 21.449C1.96042 23.3311 3.10307 25.0412 4.54356 26.4817C5.98404 27.9222 7.69415 29.0648 9.57623 29.8444C11.4583 30.624 13.4755 31.0253 15.5127 31.0253C17.5498 31.0253 19.567 30.624 21.4491 29.8444C23.3312 29.0648 25.0413 27.9222 26.4818 26.4817C27.9223 25.0412 29.0649 23.3311 29.8445 21.449C30.6241 19.5669 31.0254 17.5497 31.0254 15.5126L26.1776 15.5126C24.5712 15.5126 23.3184 16.8587 22.73 18.3535C22.7133 18.396 22.6961 18.4385 22.6786 18.4808C22.2888 19.4218 21.7175 20.2769 20.9972 20.9971C20.277 21.7174 19.4219 22.2887 18.4809 22.6785C17.5399 23.0683 16.5313 23.2689 15.5127 23.2689C14.4941 23.2689 13.4855 23.0683 12.5445 22.6785C11.6034 22.2887 10.7484 21.7174 10.0281 20.9971C9.30787 20.2769 8.73655 19.4218 8.34676 18.4808C7.95696 17.5398 7.75634 16.5312 7.75634 15.5126L0 15.5126Z" fill="url(#paint1_linear_1420_512)"></path> <path d="M6.6032 28.2121C8.92108 29.8416 11.7053 30.8525 14.716 31.0051C12.9511 30.9143 11.2126 30.5222 9.57627 29.8445C8.52615 29.4095 7.52929 28.8619 6.6032 28.2121Z" fill="#73E5E2"></path> <path d="M2.65091 24.1859C2.07188 23.3272 1.57913 22.4105 1.18088 21.4491C0.681448 20.2433 0.336872 18.9821 0.154022 17.6957C0.489129 20.0751 1.36403 22.2811 2.65091 24.1859Z" fill="#73E5E2"></path> <path d="M0.00158691 15.5126C0.00158691 6.94518 6.94683 -6.10352e-05 15.5142 -6.10352e-05C16.8556 -6.10352e-05 18.1572 0.170185 19.3987 0.490262C16.7348 1.17651 14.2774 2.56529 12.2991 4.54351C9.38992 7.45267 7.75557 11.3984 7.75557 15.5126H0.00158691Z" fill="#73E5E2"></path> <path d="M31.0254 15.5126C31.0254 17.5497 30.6241 19.567 29.8446 21.4491C29.065 23.3311 27.9223 25.0412 26.4818 26.4817C25.0413 27.9222 23.3312 29.0649 21.4492 29.8445C19.5673 30.6239 17.5505 31.0252 15.5136 31.0253C15.5138 31.0253 15.5133 31.0253 15.5136 31.0253C24.081 31.0253 31.0269 24.08 31.0269 15.5126H31.0254Z" fill="#73E5E2"></path> <defs> <linearGradient id="paint0_linear_1420_512" x1="38.7809" y1="7.75628" x2="7.75555" y2="7.75628" gradientUnits="userSpaceOnUse"> <stop stop-color="#73E5E2"></stop> <stop offset="1" stop-color="#394F87"></stop> </linearGradient> <linearGradient id="paint1_linear_1420_512" x1="1.01712e-06" y1="23.2689" x2="31.0254" y2="23.2689" gradientUnits="userSpaceOnUse"> <stop stop-color="#FBDC8E"></stop> <stop offset="1" stop-color="#FB958E"></stop> </linearGradient> </defs> </svg>