<svg width="610" height="406" viewBox="0 0 610 406" fill="none" xmlns="http://www.w3.org/2000/svg">
<rect width="610" height="406" fill="#B2D6F2"/>
<g clip-path="url(#clip0_9460_94626)">
<circle opacity="0.2" cx="305" cy="203" r="305" fill="white"/>
<circle opacity="0.2" cx="306" cy="204" r="136" fill="white"/>
<circle opacity="0.2" cx="305.5" cy="203.5" r="203.5" fill="white"/>
</g>
<circle cx="305" cy="203" r="110" fill="#0077D4"/>
<path d="M305.205 212.371C312.813 212.371 318.955 206.23 318.955 198.621V171.121C318.955 163.513 312.813 157.371 305.205 157.371C297.597 157.371 291.455 163.513 291.455 171.121V198.621C291.455 206.23 297.597 212.371 305.205 212.371Z" fill="white"/>
<path d="M328.121 198.621C328.121 211.271 317.854 221.538 305.204 221.538C292.554 221.538 282.288 211.271 282.288 198.621H273.121C273.121 214.801 285.084 228.092 300.621 230.338V244.455H309.788V230.338C325.325 228.092 337.288 214.801 337.288 198.621H328.121V198.621Z" fill="white"/>
<defs>
<clipPath id="clip0_9460_94626">
<rect width="610" height="406" fill="white"/>
</clipPath>
</defs>
</svg>
