<svg width="72" height="72" viewBox="0 0 72 72" fill="none" xmlns="http://www.w3.org/2000/svg">
<circle cx="36" cy="36" r="36" fill="#0077D4"/>
<path d="M36 39.3333C38.7667 39.3333 41 37.0999 41 34.3333V24.3333C41 21.5666 38.7667 19.3333 36 19.3333C33.2333 19.3333 31 21.5666 31 24.3333V34.3333C31 37.0999 33.2333 39.3333 36 39.3333Z" fill="white"/>
<path d="M44.334 34.3333C44.334 38.9333 40.6007 42.6666 36.0007 42.6666C31.4007 42.6666 27.6673 38.9333 27.6673 34.3333H24.334C24.334 40.2166 28.684 45.0499 34.334 45.8666V50.9999H37.6673V45.8666C43.3173 45.0499 47.6673 40.2166 47.6673 34.3333H44.334Z" fill="white"/>
</svg>
